<svg id="ea23ee6a-b16c-49ab-b865-b752e2a45a60" data-name="Layer 1" xmlns="http://www.w3.org/2000/svg" width="200" height="200" viewBox="0 0 200 200">
  <title>icon-take-four-cards</title>
  <g id="ba1c1484-d7e5-441f-98d3-8a6eaa55251c" data-name="icon-take-four-cards">
    <path id="e2d6be15-2ea7-464a-a93a-083bc87881d5" data-name="path3773-0-4-8-4-60-3-86-5-6" d="M160,0A160,160,0,0,0,0,160a40,40,0,0,0,40,40A160,160,0,0,0,200,40,40,40,0,0,0,160,0Z" transform="translate(0 0)" fill="#fff" fill-rule="evenodd"/>
    <g id="fd0036e2-e902-4bdd-abbb-21b36f362616" data-name="g6111-38-2">
      <path id="f0b026f4-675a-442d-81a2-5c57f1af5a28" data-name="rect6095-2-9" d="M62.86,50h40c5.52,0,8.84,4,7.42,9L89.72,131c-1.42,5-7,9-12.58,9h-40c-5.52,0-8.84-4-7.42-9L50.28,59C51.7,54,57.33,50,62.86,50Z" transform="translate(0 0)" fill="#fff" stroke="#000" stroke-width="0.51" fill-rule="evenodd"/>
      <path id="bdcc21d6-6953-42f0-a9a8-f03a7613d8a5" data-name="rect6097-5-7" d="M70,60H90c5.52,0,8.84,4,7.42,9L82.58,121c-1.43,5-7.06,9-12.58,9H50c-5.52,0-8.85-4-7.42-9L57.42,69C58.84,64,64.48,60,70,60Z" transform="translate(0 0)" fill="#f55" fill-rule="evenodd"/>
    </g>
    <g id="b501ce95-dec5-4d37-9265-757bf5c94244" data-name="g6111-62-2-1">
      <path id="a151879c-d5c8-4389-ac8f-51126799cbaa" data-name="rect6095-14-0-3" d="M102.86,20h40c5.52,0,8.84,4,7.42,9L129.72,101c-1.42,5-7,9-12.58,9h-40c-5.52,0-8.84-4-7.42-9L90.28,29C91.7,24,97.33,20,102.86,20Z" transform="translate(0 0)" fill="#fff" stroke="#000" stroke-width="0.51" fill-rule="evenodd"/>
      <path id="ebb8fbcb-6208-4069-a627-752c072429a8" data-name="rect6097-6-3-2" d="M110,30h20c5.52,0,8.84,4,7.42,9L122.58,91c-1.43,5-7.06,9-12.58,9H90c-5.52,0-8.85-4-7.42-9L97.42,39C98.84,34,104.48,30,110,30Z" transform="translate(0 0)" fill="#55f" fill-rule="evenodd"/>
    </g>
    <g id="b67f7bce-5156-422b-b530-4795369050ff" data-name="g6111-3-5">
      <path id="b63a75a2-e659-4806-97c1-2a047e88c903" data-name="rect6095-0-3" d="M92.86,80h40c5.52,0,8.84,4,7.42,9L119.72,161c-1.42,5-7,9-12.58,9h-40c-5.52,0-8.84-4-7.42-9L80.28,89C81.7,84,87.33,80,92.86,80Z" transform="translate(0 0)" fill="#fff" stroke="#000" stroke-width="0.51" fill-rule="evenodd"/>
      <path id="f7ad0cb6-492d-4c28-a4be-15fde3feb868" data-name="rect6097-7-4" d="M100,90h20c5.52,0,8.84,4,7.42,9L112.58,151c-1.43,5-7.06,9-12.58,9H80c-5.52,0-8.85-4-7.42-9L87.42,99C88.84,94,94.48,90,100,90Z" transform="translate(0 0)" fill="#fa0" fill-rule="evenodd"/>
    </g>
    <g id="b18fb482-2de4-4694-918c-47c4aea1e25d" data-name="g6111-62-7-3">
      <path id="e8744afe-5611-4c95-a8a0-d7d81322035d" data-name="rect6095-14-8-2" d="M132.86,50h40c5.52,0,8.84,4,7.42,9L159.72,131c-1.42,5-7.05,9-12.58,9h-40c-5.52,0-8.84-4-7.42-9L120.28,59C121.7,54,127.33,50,132.86,50Z" transform="translate(0 0)" fill="#fff" stroke="#000" stroke-width="0.51" fill-rule="evenodd"/>
      <path id="ad6b3eb3-a038-4eb4-aa6f-4cbfd325867a" data-name="rect6097-6-7-1" d="M140,60h20c5.52,0,8.84,4,7.42,9L152.58,121c-1.43,5-7.06,9-12.58,9H120c-5.52,0-8.85-4-7.42-9L127.42,69C128.84,64,134.48,60,140,60Z" transform="translate(0 0)" fill="#5a5" fill-rule="evenodd"/>
    </g>
  </g>
</svg>
