<svg id="b3ac91ed-609b-483e-af10-ed590d0f9f40" data-name="Layer 1" xmlns="http://www.w3.org/2000/svg" width="200" height="200" viewBox="0 0 200 200">
  <title>icon-next-player-take-two</title>
  <path id="f5f10049-74e3-4995-bcdb-6940ca6f06ca" data-name="icon-next-player-take-two" d="M160,0A160,160,0,0,0,0,160a40,40,0,0,0,40,40A160,160,0,0,0,200,40,40,40,0,0,0,160,0Zm.28,49L139.72,121c-1.42,5-7.05,9-12.58,9H105.71l-6,21c-1.42,5-7,9-12.58,9h-40c-5.52,0-8.84-4-7.42-9L60.28,79c1.42-5,7-9,12.58-9H94.29l6-21c1.42-5,7-9,12.58-9h40C158.38,40,161.7,44,160.28,49ZM67.42,89,52.58,141c-1.42,5,1.9,9,7.42,9H80c5.52,0,11.16-4,12.58-9L107.42,89c1.42-5-1.9-9-7.42-9H80C74.48,80,68.84,84,67.42,89Zm40-30L92.58,111c-1.43,5,1.9,9,7.42,9h20c5.52,0,11.15-4,12.58-9L147.42,59c1.42-5-1.9-9-7.42-9H120C114.48,50,108.84,54,107.42,59Z" transform="translate(0 0)" fill="#fff" fill-rule="evenodd"/>
</svg>
