<?xml version="1.0" standalone="no"?>
<!DOCTYPE svg PUBLIC "-//W3C//DTD SVG 20010904//EN"
 "http://www.w3.org/TR/2001/REC-SVG-20010904/DTD/svg10.dtd">
<svg version="1.0" xmlns="http://www.w3.org/2000/svg"
 width="1509.000000pt" height="1509.000000pt" viewBox="0 0 1509.000000 1509.000000"
 preserveAspectRatio="xMidYMid meet">
<metadata>
Created by potrace 1.11, written by Peter Selinger 2001-2013
</metadata>
<g transform="translate(0.000000,1509.000000) scale(0.100000,-0.100000)"
fill="#000000" stroke="none">
<path d="M3981 15068 c-258 -32 -561 -156 -783 -320 -106 -78 -278 -250 -356
-356 -172 -233 -291 -531 -322 -807 -8 -73 -10 -1704 -8 -6105 l3 -6005 23
-100 c54 -234 136 -430 257 -610 291 -435 750 -706 1275 -754 156 -15 6788
-15 6949 -1 530 47 987 317 1282 758 159 237 253 508 279 803 14 162 14 11792
-1 11949 -48 525 -319 984 -754 1275 -180 121 -377 203 -610 257 l-100 23
-3530 1 c-2130 1 -3559 -2 -3604 -8z m7231 -96 c492 -113 888 -417 1112 -852
106 -206 156 -380 176 -615 8 -93 10 -1796 8 -6055 -4 -5577 -5 -5930 -21
-6010 -74 -363 -218 -639 -458 -879 -240 -240 -517 -384 -879 -458 -79 -16
-312 -17 -3510 -21 -2445 -2 -3462 0 -3555 8 -235 20 -409 70 -615 176 -435
224 -738 620 -852 1112 l-23 97 -3 6005 c-2 4469 0 6029 8 6100 34 278 151
562 326 791 62 82 211 231 293 293 163 125 377 231 563 281 212 56 -18 53
3803 51 l3530 -1 97 -23z"/>
<path d="M4060 14195 c-322 -65 -564 -292 -656 -615 -18 -63 -19 -188 -20
-3755 -1 -2029 1 -3679 3 -3665 172 1007 576 1976 1168 2805 1071 1500 2707
2500 4515 2760 347 49 482 59 865 59 338 1 366 0 462 -22 578 -128 1052 -520
1270 -1051 l43 -106 -2 1465 -3 1465 -32 95 c-94 276 -290 464 -576 553 l-72
22 -3450 2 c-2822 1 -3462 -1 -3515 -12z m1519 -330 c172 -41 315 -176 365
-345 21 -71 22 -263 1 -403 -55 -372 -224 -706 -495 -977 -326 -326 -756 -510
-1196 -510 -192 0 -290 36 -398 146 -111 112 -152 237 -142 430 41 800 606
1468 1381 1633 189 41 379 50 484 26z"/>
<path d="M11676 8769 c-59 -320 -177 -739 -297 -1062 -183 -490 -440 -994
-724 -1416 -475 -709 -1078 -1321 -1780 -1808 -930 -644 -2004 -1040 -3145
-1157 -227 -24 -581 -39 -740 -33 -712 30 -1300 445 -1576 1112 l-33 80 2
-1460 2 -1460 23 -72 c88 -286 276 -482 552 -576 l95 -32 3460 -3 3460 -3 91
21 c310 71 553 314 624 624 l21 91 -3 3654 -3 3654 -29 -154z m-670 -5323 c78
-21 169 -74 228 -132 58 -59 111 -150 132 -228 16 -61 18 -219 4 -336 -104
-848 -810 -1503 -1656 -1537 -163 -7 -216 2 -317 55 -120 62 -218 184 -253
316 -16 61 -18 219 -4 336 83 674 552 1245 1197 1456 92 30 265 68 353 77 91
10 269 6 316 -7z"/>
</g>
</svg>
