<svg id="e4690cdb-b6af-4a73-b24b-cdb4c5193576" data-name="Layer 1" xmlns="http://www.w3.org/2000/svg" width="200" height="200" viewBox="0 0 200 200">
  <title>icon-choose-color</title>
  <g id="be0b8d0c-0ed7-43ff-bb10-34003615fa27" data-name="icon-choose-color">
    <path id="ef12340f-21d9-4f41-b897-631e01b5ccae" data-name="path3773-0-4-8-8-7-9-0-9-1" d="M11.75,100A159.39,159.39,0,0,0,0,160a40,40,0,0,0,40,40l60-100Z" fill="#fa0" fill-rule="evenodd"/>
    <path id="aabb353c-8e42-45b2-a1a2-7c217fb85745" data-name="path3773-0-4-8-8-5-6-5-0-08-2" d="M100,100,40,200A160,160,0,0,0,188.25,100Z" fill="#0a0" fill-rule="evenodd"/>
    <path id="bcd54173-df66-4590-95b3-8aca60b7844e" data-name="path3773-0-4-8-8-1-4-3-1-0" d="M160,0A160,160,0,0,0,11.75,100H100Z" fill="#f55" fill-rule="evenodd"/>
    <path id="fe27f68e-0e37-4849-85e2-9a2fcf3ecab5" data-name="path3773-0-4-8-8-5-8-3-9-4-9" d="M160,0,100,100h88.25A159.39,159.39,0,0,0,200,40,40,40,0,0,0,160,0Z" fill="#55f" fill-rule="evenodd"/>
  </g>
</svg>
