<svg id="add07275-3b34-452a-85e1-d8848be9f3d5" data-name="Layer 1" xmlns="http://www.w3.org/2000/svg" width="200" height="200" viewBox="0 0 200 200">
  <title>icon-reverse-direction</title>
  <path id="b744c2f4-4e2f-40dd-994b-66f191d3666c" data-name="icon-reverse-direction" d="M160,0A160,160,0,0,0,0,160a40,40,0,0,0,40,40A160,160,0,0,0,200,40,40,40,0,0,0,160,0ZM100,35l10,10L70,85c-10,10-10,30,0,40l20-20,40-40,10,10V35Zm0,130L90,155l40-40c10-10,10-30,0-40L110,95,70,135,60,125v40Z" transform="translate(0 0)" fill="#fff" fill-rule="evenodd"/>
</svg>
