<svg id="f4bed3aa-fc72-4f93-a2ca-faaf1a5e93c6" data-name="Layer 1" xmlns="http://www.w3.org/2000/svg" width="200" height="200" viewBox="0 0 200 200">
  <title>icon-next-player-skip-turn</title>
  <path id="b95a7def-df8c-46e0-8672-2a6b17e77eb1" data-name="icon-" d="M160,0A160,160,0,0,0,0,160a40,40,0,0,0,40,40A160,160,0,0,0,200,40,40,40,0,0,0,160,0ZM100.12,40A60,60,0,1,0,142.5,57.62,59.93,59.93,0,0,0,100.12,40ZM100,60a40.08,40.08,0,0,1,20.25,5.5L65.5,120.25A40,40,0,0,1,100,60Zm34.5,19.63a40,40,0,0,1-54.87,54.75Z" fill="#fff" fill-rule="evenodd"/>
</svg>
